<svg width="232" height="89" viewBox="0 0 232 89" fill="none" xmlns="http://www.w3.org/2000/svg">
<path fill-rule="evenodd" clip-rule="evenodd" d="M166 13H5V63H166V13ZM0 8V68H171V8H0Z" fill="white"/>
<path d="M201.291 17.3176C124.082 2.34392 96.6713 58.8669 92.4173 89C86.899 32.7176 136.307 -31.3446 228.706 17.144C230.109 17.8803 230.179 19.9292 228.86 20.8073C210.979 32.7101 194.919 61.8024 181.351 73.4686C154.608 100.947 113.175 77.6488 107.935 72.2942C107.69 72.0438 107.658 71.6707 107.795 71.3486C128.982 21.8068 178.904 14.672 201.291 17.3176Z" fill="#25995C"/>
<path d="M133.316 63C133.716 63 134.02 63.048 134.228 63.144C134.436 63.232 134.62 63.332 134.78 63.444C134.876 63.5 134.952 63.544 135.008 63.576C135.072 63.6 135.132 63.612 135.188 63.612C135.268 63.612 135.324 63.568 135.356 63.48C135.396 63.392 135.428 63.26 135.452 63.084H135.728C135.72 63.22 135.708 63.384 135.692 63.576C135.684 63.76 135.676 64.008 135.668 64.32C135.668 64.624 135.668 65.028 135.668 65.532H135.392C135.368 65.148 135.284 64.78 135.14 64.428C134.996 64.076 134.784 63.788 134.504 63.564C134.232 63.34 133.872 63.228 133.424 63.228C133 63.228 132.648 63.356 132.368 63.612C132.096 63.868 131.96 64.204 131.96 64.62C131.96 64.98 132.052 65.284 132.236 65.532C132.42 65.772 132.664 65.992 132.968 66.192C133.28 66.384 133.616 66.592 133.976 66.816C134.392 67.072 134.76 67.328 135.08 67.584C135.408 67.832 135.664 68.108 135.848 68.412C136.04 68.716 136.136 69.084 136.136 69.516C136.136 70.028 136.02 70.452 135.788 70.788C135.556 71.124 135.248 71.376 134.864 71.544C134.48 71.712 134.056 71.796 133.592 71.796C133.168 71.796 132.832 71.748 132.584 71.652C132.336 71.556 132.124 71.456 131.948 71.352C131.772 71.24 131.636 71.184 131.54 71.184C131.46 71.184 131.4 71.228 131.36 71.316C131.328 71.404 131.3 71.536 131.276 71.712H131C131.016 71.544 131.024 71.348 131.024 71.124C131.032 70.892 131.036 70.592 131.036 70.224C131.044 69.856 131.048 69.392 131.048 68.832H131.324C131.356 69.312 131.444 69.76 131.588 70.176C131.74 70.592 131.968 70.928 132.272 71.184C132.584 71.432 132.996 71.556 133.508 71.556C133.772 71.556 134.02 71.504 134.252 71.4C134.492 71.288 134.688 71.116 134.84 70.884C134.992 70.644 135.068 70.336 135.068 69.96C135.068 69.632 134.988 69.348 134.828 69.108C134.676 68.86 134.46 68.632 134.18 68.424C133.9 68.208 133.572 67.988 133.196 67.764C132.82 67.532 132.468 67.296 132.14 67.056C131.812 66.816 131.548 66.54 131.348 66.228C131.156 65.908 131.06 65.524 131.06 65.076C131.06 64.604 131.164 64.216 131.372 63.912C131.588 63.6 131.868 63.372 132.212 63.228C132.556 63.076 132.924 63 133.316 63Z" fill="white"/>
<path d="M138.98 65.316V72.684C138.98 73.028 139.08 73.256 139.28 73.368C139.488 73.488 139.772 73.548 140.132 73.548V73.8C139.956 73.792 139.712 73.78 139.4 73.764C139.088 73.756 138.756 73.752 138.404 73.752C138.156 73.752 137.908 73.756 137.66 73.764C137.42 73.78 137.236 73.792 137.108 73.8V73.548C137.396 73.548 137.6 73.496 137.72 73.392C137.84 73.288 137.9 73.092 137.9 72.804V66.756C137.9 66.396 137.836 66.132 137.708 65.964C137.58 65.788 137.34 65.7 136.988 65.7V65.448C137.244 65.472 137.492 65.484 137.732 65.484C137.964 65.484 138.184 65.472 138.392 65.448C138.608 65.416 138.804 65.372 138.98 65.316ZM140.9 65.28C141.324 65.28 141.704 65.396 142.04 65.628C142.376 65.852 142.64 66.184 142.832 66.624C143.032 67.064 143.132 67.608 143.132 68.256C143.132 68.688 143.08 69.116 142.976 69.54C142.872 69.956 142.708 70.336 142.484 70.68C142.268 71.016 141.984 71.288 141.632 71.496C141.288 71.696 140.872 71.796 140.384 71.796C140.008 71.796 139.68 71.708 139.4 71.532C139.128 71.356 138.944 71.144 138.848 70.896L138.968 70.728C139.08 70.952 139.24 71.14 139.448 71.292C139.664 71.444 139.932 71.52 140.252 71.52C140.7 71.52 141.048 71.38 141.296 71.1C141.544 70.82 141.716 70.448 141.812 69.984C141.916 69.512 141.968 68.992 141.968 68.424C141.968 67.784 141.916 67.26 141.812 66.852C141.708 66.444 141.552 66.14 141.344 65.94C141.136 65.74 140.88 65.64 140.576 65.64C140.184 65.64 139.828 65.804 139.508 66.132C139.188 66.452 138.984 66.94 138.896 67.596L138.752 67.428C138.84 66.748 139.08 66.22 139.472 65.844C139.872 65.468 140.348 65.28 140.9 65.28Z" fill="white"/>
<path d="M151.953 65.388L148.485 71.448H149.805C150.125 71.448 150.401 71.384 150.633 71.256C150.873 71.128 151.065 70.924 151.209 70.644C151.353 70.356 151.441 69.98 151.473 69.516H151.749C151.749 70.028 151.753 70.46 151.761 70.812C151.769 71.164 151.781 71.452 151.797 71.676C151.445 71.66 151.077 71.648 150.693 71.64C150.317 71.632 149.941 71.628 149.565 71.628C149.165 71.628 148.757 71.632 148.341 71.64C147.925 71.656 147.525 71.672 147.141 71.688L150.609 65.628H149.289C148.937 65.628 148.641 65.692 148.401 65.82C148.169 65.948 147.989 66.156 147.861 66.444C147.741 66.724 147.661 67.096 147.621 67.56H147.345C147.345 67.04 147.341 66.608 147.333 66.264C147.325 65.912 147.313 65.624 147.297 65.4C147.649 65.416 148.013 65.428 148.389 65.436C148.773 65.444 149.153 65.448 149.529 65.448C149.929 65.448 150.337 65.444 150.753 65.436C151.169 65.42 151.569 65.404 151.953 65.388Z" fill="white"/>
<path d="M158.669 65.28C159.181 65.28 159.641 65.392 160.049 65.616C160.457 65.84 160.781 66.192 161.021 66.672C161.269 67.152 161.393 67.776 161.393 68.544C161.393 69.312 161.269 69.936 161.021 70.416C160.781 70.888 160.457 71.236 160.049 71.46C159.641 71.684 159.181 71.796 158.669 71.796C158.165 71.796 157.705 71.684 157.289 71.46C156.881 71.236 156.553 70.888 156.305 70.416C156.065 69.936 155.945 69.312 155.945 68.544C155.945 67.776 156.065 67.152 156.305 66.672C156.553 66.192 156.881 65.84 157.289 65.616C157.705 65.392 158.165 65.28 158.669 65.28ZM158.669 65.52C158.213 65.52 157.837 65.756 157.541 66.228C157.253 66.7 157.109 67.472 157.109 68.544C157.109 69.616 157.253 70.388 157.541 70.86C157.837 71.324 158.213 71.556 158.669 71.556C159.125 71.556 159.497 71.324 159.785 70.86C160.081 70.388 160.229 69.616 160.229 68.544C160.229 67.472 160.081 66.7 159.785 66.228C159.497 65.756 159.125 65.52 158.669 65.52Z" fill="white"/>
<path d="M163.467 70.26C163.675 70.26 163.855 70.336 164.007 70.488C164.159 70.64 164.235 70.82 164.235 71.028C164.235 71.236 164.159 71.416 164.007 71.568C163.855 71.72 163.675 71.796 163.467 71.796C163.259 71.796 163.079 71.72 162.927 71.568C162.775 71.416 162.699 71.236 162.699 71.028C162.699 70.82 162.775 70.64 162.927 70.488C163.079 70.336 163.259 70.26 163.467 70.26Z" fill="white"/>
<path d="M168.266 65.28C168.778 65.28 169.238 65.392 169.646 65.616C170.054 65.84 170.378 66.192 170.618 66.672C170.866 67.152 170.99 67.776 170.99 68.544C170.99 69.312 170.866 69.936 170.618 70.416C170.378 70.888 170.054 71.236 169.646 71.46C169.238 71.684 168.778 71.796 168.266 71.796C167.762 71.796 167.302 71.684 166.886 71.46C166.478 71.236 166.15 70.888 165.902 70.416C165.662 69.936 165.542 69.312 165.542 68.544C165.542 67.776 165.662 67.152 165.902 66.672C166.15 66.192 166.478 65.84 166.886 65.616C167.302 65.392 167.762 65.28 168.266 65.28ZM168.266 65.52C167.81 65.52 167.434 65.756 167.138 66.228C166.85 66.7 166.706 67.472 166.706 68.544C166.706 69.616 166.85 70.388 167.138 70.86C167.434 71.324 167.81 71.556 168.266 71.556C168.722 71.556 169.094 71.324 169.382 70.86C169.678 70.388 169.826 69.616 169.826 68.544C169.826 67.472 169.678 66.7 169.382 66.228C169.094 65.756 168.722 65.52 168.266 65.52Z" fill="white"/>
<path d="M173.065 70.26C173.273 70.26 173.453 70.336 173.605 70.488C173.757 70.64 173.833 70.82 173.833 71.028C173.833 71.236 173.757 71.416 173.605 71.568C173.453 71.72 173.273 71.796 173.065 71.796C172.857 71.796 172.677 71.72 172.525 71.568C172.373 71.416 172.297 71.236 172.297 71.028C172.297 70.82 172.373 70.64 172.525 70.488C172.677 70.336 172.857 70.26 173.065 70.26Z" fill="white"/>
<path d="M41.67 28.7598V29.3298C41.03 29.4698 40.34 29.7498 39.6 30.1698C38.88 30.5898 38.12 31.2698 37.32 32.2098L31.68 38.9298L33.42 36.4398L40.56 47.5698C40.84 48.0298 41.14 48.3998 41.46 48.6798C41.78 48.9598 42.2 49.1998 42.72 49.3998V49.9998C42.02 49.9598 41.24 49.9398 40.38 49.9398C39.52 49.9198 38.74 49.9098 38.04 49.9098C37.62 49.9098 37.11 49.9198 36.51 49.9398C35.91 49.9398 35.15 49.9598 34.23 49.9998V49.3998C35.05 49.3598 35.54 49.2498 35.7 49.0698C35.88 48.8698 35.81 48.5298 35.49 48.0498L31.14 40.9998C30.86 40.5398 30.61 40.1998 30.39 39.9798C30.17 39.7398 29.95 39.5798 29.73 39.4998C29.51 39.3998 29.22 39.3398 28.86 39.3198V38.6898C29.74 38.6698 30.52 38.4298 31.2 37.9698C31.9 37.5098 32.66 36.8098 33.48 35.8698L35.25 33.7398C36.01 32.8398 36.45 32.0698 36.57 31.4298C36.71 30.7698 36.58 30.2598 36.18 29.8998C35.8 29.5398 35.21 29.3498 34.41 29.3298V28.7598C34.91 28.7798 35.38 28.7998 35.82 28.8198C36.28 28.8198 36.75 28.8298 37.23 28.8498C37.73 28.8498 38.27 28.8498 38.85 28.8498C39.43 28.8498 39.95 28.8398 40.41 28.8198C40.89 28.7998 41.31 28.7798 41.67 28.7598ZM31.29 28.7598V29.3598C30.65 29.3798 30.16 29.4598 29.82 29.5998C29.5 29.7198 29.29 29.9598 29.19 30.3198C29.09 30.6598 29.04 31.1998 29.04 31.9398V46.8198C29.04 47.5398 29.09 48.0798 29.19 48.4398C29.31 48.7998 29.53 49.0398 29.85 49.1598C30.17 49.2798 30.65 49.3598 31.29 49.3998V49.9998C30.75 49.9598 30.07 49.9398 29.25 49.9398C28.43 49.9198 27.6 49.9098 26.76 49.9098C25.8 49.9098 24.89 49.9198 24.03 49.9398C23.19 49.9398 22.52 49.9598 22.02 49.9998V49.3998C22.66 49.3598 23.14 49.2798 23.46 49.1598C23.78 49.0398 23.99 48.7998 24.09 48.4398C24.21 48.0798 24.27 47.5398 24.27 46.8198V31.9398C24.27 31.1998 24.21 30.6598 24.09 30.3198C23.99 29.9598 23.77 29.7198 23.43 29.5998C23.11 29.4598 22.64 29.3798 22.02 29.3598V28.7598C22.52 28.7798 23.19 28.7998 24.03 28.8198C24.89 28.8398 25.8 28.8498 26.76 28.8498C27.6 28.8498 28.43 28.8398 29.25 28.8198C30.07 28.7998 30.75 28.7798 31.29 28.7598Z" fill="white"/>
<path d="M53.456 34.0698C54.096 34.0698 54.616 34.2098 55.016 34.4898C55.416 34.7498 55.706 35.0898 55.886 35.5098C56.086 35.9298 56.186 36.3698 56.186 36.8298C56.186 37.5698 55.966 38.1798 55.526 38.6598C55.106 39.1198 54.546 39.3498 53.846 39.3498C53.146 39.3498 52.596 39.1798 52.196 38.8398C51.816 38.4798 51.626 38.0098 51.626 37.4298C51.626 36.8698 51.746 36.4098 51.986 36.0498C52.246 35.6698 52.566 35.3498 52.946 35.0898C52.666 35.0098 52.386 35.0198 52.106 35.1198C51.726 35.1798 51.366 35.3398 51.026 35.5998C50.686 35.8398 50.396 36.1498 50.156 36.5298C49.916 36.8898 49.726 37.2898 49.586 37.7298C49.446 38.1498 49.376 38.5598 49.376 38.9598V46.9098C49.376 47.8698 49.606 48.5198 50.066 48.8598C50.546 49.1998 51.256 49.3698 52.196 49.3698V49.9998C51.736 49.9798 51.066 49.9598 50.186 49.9398C49.306 49.8998 48.386 49.8798 47.426 49.8798C46.626 49.8798 45.816 49.8998 44.996 49.9398C44.176 49.9598 43.556 49.9798 43.136 49.9998V49.3698C43.836 49.3698 44.326 49.2198 44.606 48.9198C44.906 48.6198 45.056 48.0498 45.056 47.2098V37.7598C45.056 36.8598 44.916 36.1998 44.636 35.7798C44.376 35.3398 43.876 35.1198 43.136 35.1198V34.4898C43.776 34.5498 44.396 34.5798 44.996 34.5798C45.836 34.5798 46.616 34.5498 47.336 34.4898C48.076 34.4098 48.756 34.2998 49.376 34.1598V36.9498C49.616 36.4098 49.936 35.9198 50.336 35.4798C50.736 35.0398 51.196 34.6998 51.716 34.4598C52.236 34.1998 52.816 34.0698 53.456 34.0698Z" fill="white"/>
<path d="M64.4698 34.0698C66.2298 34.0698 67.6098 34.5898 68.6098 35.6298C69.6098 36.6698 70.1098 38.3698 70.1098 40.7298H60.2398L60.1798 40.1598H66.3298C66.3498 39.1798 66.2898 38.2798 66.1498 37.4598C66.0098 36.6198 65.7898 35.9498 65.4898 35.4498C65.1898 34.9498 64.7898 34.6998 64.2898 34.6998C63.5898 34.6998 62.9898 35.1398 62.4898 36.0198C62.0098 36.8998 61.7198 38.3598 61.6198 40.3998L61.7098 40.5798C61.6898 40.8198 61.6698 41.0698 61.6498 41.3298C61.6498 41.5898 61.6498 41.8598 61.6498 42.1398C61.6498 43.5198 61.8398 44.6398 62.2198 45.4998C62.6198 46.3598 63.1198 46.9898 63.7198 47.3898C64.3198 47.7698 64.9298 47.9598 65.5498 47.9598C65.9698 47.9598 66.3998 47.8998 66.8398 47.7798C67.2998 47.6398 67.7598 47.3998 68.2198 47.0598C68.6798 46.6998 69.1098 46.1998 69.5098 45.5598L70.0498 45.7398C69.8098 46.4998 69.4298 47.2398 68.9098 47.9598C68.3898 48.6798 67.7298 49.2698 66.9298 49.7298C66.1298 50.1898 65.1698 50.4198 64.0498 50.4198C62.6898 50.4198 61.4898 50.1298 60.4498 49.5498C59.4098 48.9698 58.5898 48.0898 57.9898 46.9098C57.4098 45.7298 57.1198 44.2298 57.1198 42.4098C57.1198 40.5498 57.4298 38.9998 58.0498 37.7598C58.6898 36.5198 59.5598 35.5998 60.6598 34.9998C61.7798 34.3798 63.0498 34.0698 64.4698 34.0698Z" fill="white"/>
<path d="M86.607 26.5098V46.6998C86.607 47.5998 86.747 48.2698 87.027 48.7098C87.307 49.1298 87.807 49.3398 88.527 49.3398V49.9698C87.907 49.9098 87.287 49.8798 86.667 49.8798C85.827 49.8798 85.037 49.9098 84.297 49.9698C83.577 50.0298 82.907 50.1398 82.287 50.2998V30.1098C82.287 29.2098 82.147 28.5498 81.867 28.1298C81.607 27.6898 81.107 27.4698 80.367 27.4698V26.8398C81.007 26.8998 81.627 26.9298 82.227 26.9298C83.047 26.9298 83.827 26.8998 84.567 26.8398C85.307 26.7598 85.987 26.6498 86.607 26.5098ZM78.957 34.0698C79.837 34.0698 80.607 34.2198 81.267 34.5198C81.947 34.7998 82.477 35.2798 82.857 35.9598L82.497 36.2898C82.237 35.8098 81.887 35.4698 81.447 35.2698C81.027 35.0498 80.577 34.9398 80.097 34.9398C79.077 34.9398 78.267 35.5398 77.667 36.7398C77.067 37.9198 76.777 39.7498 76.797 42.2298C76.797 43.9298 76.907 45.2898 77.127 46.3098C77.367 47.3098 77.697 48.0298 78.117 48.4698C78.557 48.9098 79.057 49.1298 79.617 49.1298C80.297 49.1298 80.907 48.8598 81.447 48.3198C81.987 47.7798 82.277 47.0498 82.317 46.1298L82.467 47.1798C82.167 48.2398 81.677 49.0498 80.997 49.6098C80.337 50.1498 79.467 50.4198 78.387 50.4198C77.207 50.4198 76.147 50.1298 75.207 49.5498C74.287 48.9698 73.567 48.0798 73.047 46.8798C72.527 45.6598 72.267 44.0898 72.267 42.1698C72.267 40.3498 72.557 38.8498 73.137 37.6698C73.717 36.4698 74.507 35.5698 75.507 34.9698C76.527 34.3698 77.677 34.0698 78.957 34.0698Z" fill="white"/>
<path d="M97.5167 34.0698C98.9767 34.0698 100.257 34.3398 101.357 34.8798C102.457 35.4198 103.317 36.2898 103.937 37.4898C104.557 38.6898 104.867 40.2798 104.867 42.2598C104.867 44.2398 104.557 45.8298 103.937 47.0298C103.317 48.2098 102.457 49.0698 101.357 49.6098C100.257 50.1498 98.9767 50.4198 97.5167 50.4198C96.0967 50.4198 94.8267 50.1498 93.7067 49.6098C92.6067 49.0698 91.7367 48.2098 91.0967 47.0298C90.4767 45.8298 90.1667 44.2398 90.1667 42.2598C90.1667 40.2798 90.4767 38.6898 91.0967 37.4898C91.7367 36.2898 92.6067 35.4198 93.7067 34.8798C94.8267 34.3398 96.0967 34.0698 97.5167 34.0698ZM97.5167 34.6698C96.7167 34.6698 96.0467 35.2698 95.5067 36.4698C94.9667 37.6498 94.6967 39.5798 94.6967 42.2598C94.6967 44.9398 94.9667 46.8698 95.5067 48.0498C96.0467 49.2298 96.7167 49.8198 97.5167 49.8198C98.3367 49.8198 99.0067 49.2298 99.5267 48.0498C100.067 46.8698 100.337 44.9398 100.337 42.2598C100.337 39.5798 100.067 37.6498 99.5267 36.4698C99.0067 35.2698 98.3367 34.6698 97.5167 34.6698Z" fill="white"/>
<path d="M112.86 34.1598V52.4598C112.86 53.3998 113.1 54.0198 113.58 54.3198C114.06 54.6398 114.72 54.7998 115.56 54.7998V55.4298C115.04 55.4098 114.32 55.3798 113.4 55.3398C112.5 55.3198 111.54 55.3098 110.52 55.3098C109.78 55.3098 109.05 55.3198 108.33 55.3398C107.63 55.3798 107.1 55.4098 106.74 55.4298V54.7998C107.4 54.7998 107.86 54.6598 108.12 54.3798C108.4 54.0998 108.54 53.5598 108.54 52.7598V37.7598C108.54 36.8598 108.4 36.1998 108.12 35.7798C107.84 35.3398 107.34 35.1198 106.62 35.1198V34.4898C107.26 34.5498 107.88 34.5798 108.48 34.5798C109.3 34.5798 110.08 34.5498 110.82 34.4898C111.56 34.4098 112.24 34.2998 112.86 34.1598ZM117.51 34.0698C118.53 34.0698 119.44 34.3498 120.24 34.9098C121.04 35.4498 121.68 36.2798 122.16 37.3998C122.64 38.4998 122.88 39.8798 122.88 41.5398C122.88 42.9998 122.71 44.2798 122.37 45.3798C122.05 46.4798 121.58 47.4098 120.96 48.1698C120.36 48.9098 119.63 49.4698 118.77 49.8498C117.93 50.2298 116.98 50.4198 115.92 50.4198C115.14 50.4198 114.43 50.2798 113.79 49.9998C113.15 49.7398 112.66 49.3598 112.32 48.8598L112.62 48.4698C112.82 48.8298 113.1 49.1098 113.46 49.3098C113.84 49.5098 114.27 49.6098 114.75 49.6098C115.65 49.6098 116.36 49.3098 116.88 48.7098C117.4 48.0898 117.77 47.2298 117.99 46.1298C118.23 45.0098 118.35 43.6798 118.35 42.1398C118.35 40.4198 118.24 39.0698 118.02 38.0898C117.8 37.1098 117.5 36.4098 117.12 35.9898C116.74 35.5698 116.28 35.3598 115.74 35.3598C115.02 35.3598 114.36 35.6398 113.76 36.1998C113.18 36.7598 112.85 37.5598 112.77 38.5998L112.62 37.5498C112.98 36.4098 113.59 35.5498 114.45 34.9698C115.33 34.3698 116.35 34.0698 117.51 34.0698Z" fill="white"/>
<path d="M132.468 34.0698C133.928 34.0698 135.208 34.3398 136.308 34.8798C137.408 35.4198 138.268 36.2898 138.888 37.4898C139.508 38.6898 139.818 40.2798 139.818 42.2598C139.818 44.2398 139.508 45.8298 138.888 47.0298C138.268 48.2098 137.408 49.0698 136.308 49.6098C135.208 50.1498 133.928 50.4198 132.468 50.4198C131.048 50.4198 129.778 50.1498 128.658 49.6098C127.558 49.0698 126.688 48.2098 126.048 47.0298C125.428 45.8298 125.118 44.2398 125.118 42.2598C125.118 40.2798 125.428 38.6898 126.048 37.4898C126.688 36.2898 127.558 35.4198 128.658 34.8798C129.778 34.3398 131.048 34.0698 132.468 34.0698ZM132.468 34.6698C131.668 34.6698 130.998 35.2698 130.458 36.4698C129.918 37.6498 129.648 39.5798 129.648 42.2598C129.648 44.9398 129.918 46.8698 130.458 48.0498C130.998 49.2298 131.668 49.8198 132.468 49.8198C133.288 49.8198 133.958 49.2298 134.478 48.0498C135.018 46.8698 135.288 44.9398 135.288 42.2598C135.288 39.5798 135.018 37.6498 134.478 36.4698C133.958 35.2698 133.288 34.6698 132.468 34.6698Z" fill="white"/>
<path d="M147.518 26.5098V47.2098C147.518 48.0498 147.658 48.6198 147.938 48.9198C148.238 49.2198 148.738 49.3698 149.438 49.3698V49.9998C149.058 49.9798 148.488 49.9598 147.728 49.9398C146.968 49.8998 146.198 49.8798 145.418 49.8798C144.638 49.8798 143.848 49.8998 143.048 49.9398C142.268 49.9598 141.678 49.9798 141.278 49.9998V49.3698C141.978 49.3698 142.468 49.2198 142.748 48.9198C143.048 48.6198 143.198 48.0498 143.198 47.2098V30.1098C143.198 29.2098 143.058 28.5498 142.778 28.1298C142.518 27.6898 142.018 27.4698 141.278 27.4698V26.8398C141.918 26.8998 142.538 26.9298 143.138 26.9298C143.958 26.9298 144.738 26.8998 145.478 26.8398C146.218 26.7598 146.898 26.6498 147.518 26.5098Z" fill="white"/>
<path d="M97.5167 34.0698C98.9767 34.0698 100.257 34.3398 101.357 34.8798C102.457 35.4198 103.317 36.2898 103.937 37.4898C104.557 38.6898 104.867 40.2798 104.867 42.2598C104.867 44.2398 104.557 45.8298 103.937 47.0298C103.317 48.2098 102.457 49.0698 101.357 49.6098C100.257 50.1498 98.9767 50.4198 97.5167 50.4198C96.0967 50.4198 94.8267 50.1498 93.7067 49.6098C92.6067 49.0698 91.7367 48.2098 91.0967 47.0298C90.4767 45.8298 90.1667 44.2398 90.1667 42.2598C90.1667 40.2798 90.4767 38.6898 91.0967 37.4898C91.7367 36.2898 92.6067 35.4198 93.7067 34.8798C94.8267 34.3398 96.0967 34.0698 97.5167 34.0698ZM97.5167 34.6698C96.7167 34.6698 96.0467 35.2698 95.5067 36.4698C94.9667 37.6498 94.6967 39.5798 94.6967 42.2598C94.6967 44.9398 94.9667 46.8698 95.5067 48.0498C96.0467 49.2298 96.7167 49.8198 97.5167 49.8198C98.3367 49.8198 99.0067 49.2298 99.5267 48.0498C100.067 46.8698 100.337 44.9398 100.337 42.2598C100.337 39.5798 100.067 37.6498 99.5267 36.4698C99.0067 35.2698 98.3367 34.6698 97.5167 34.6698Z" fill="white"/>
</svg>
