<svg width="171" height="60" viewBox="0 0 171 60" fill="none" xmlns="http://www.w3.org/2000/svg">
<path fill-rule="evenodd" clip-rule="evenodd" d="M166 5H5V55H166V5ZM0 0V60H171V0H0Z" fill="white"/>
<path d="M41.67 20.7598V21.3298C41.03 21.4698 40.34 21.7498 39.6 22.1698C38.88 22.5898 38.12 23.2698 37.32 24.2098L31.68 30.9298L33.42 28.4398L40.56 39.5698C40.84 40.0298 41.14 40.3998 41.46 40.6798C41.78 40.9598 42.2 41.1998 42.72 41.3998V41.9998C42.02 41.9598 41.24 41.9398 40.38 41.9398C39.52 41.9198 38.74 41.9098 38.04 41.9098C37.62 41.9098 37.11 41.9198 36.51 41.9398C35.91 41.9398 35.15 41.9598 34.23 41.9998V41.3998C35.05 41.3598 35.54 41.2498 35.7 41.0698C35.88 40.8698 35.81 40.5298 35.49 40.0498L31.14 32.9998C30.86 32.5398 30.61 32.1998 30.39 31.9798C30.17 31.7398 29.95 31.5798 29.73 31.4998C29.51 31.3998 29.22 31.3398 28.86 31.3198V30.6898C29.74 30.6698 30.52 30.4298 31.2 29.9698C31.9 29.5098 32.66 28.8098 33.48 27.8698L35.25 25.7398C36.01 24.8398 36.45 24.0698 36.57 23.4298C36.71 22.7698 36.58 22.2598 36.18 21.8998C35.8 21.5398 35.21 21.3498 34.41 21.3298V20.7598C34.91 20.7798 35.38 20.7998 35.82 20.8198C36.28 20.8198 36.75 20.8298 37.23 20.8498C37.73 20.8498 38.27 20.8498 38.85 20.8498C39.43 20.8498 39.95 20.8398 40.41 20.8198C40.89 20.7998 41.31 20.7798 41.67 20.7598ZM31.29 20.7598V21.3598C30.65 21.3798 30.16 21.4598 29.82 21.5998C29.5 21.7198 29.29 21.9598 29.19 22.3198C29.09 22.6598 29.04 23.1998 29.04 23.9398V38.8198C29.04 39.5398 29.09 40.0798 29.19 40.4398C29.31 40.7998 29.53 41.0398 29.85 41.1598C30.17 41.2798 30.65 41.3598 31.29 41.3998V41.9998C30.75 41.9598 30.07 41.9398 29.25 41.9398C28.43 41.9198 27.6 41.9098 26.76 41.9098C25.8 41.9098 24.89 41.9198 24.03 41.9398C23.19 41.9398 22.52 41.9598 22.02 41.9998V41.3998C22.66 41.3598 23.14 41.2798 23.46 41.1598C23.78 41.0398 23.99 40.7998 24.09 40.4398C24.21 40.0798 24.27 39.5398 24.27 38.8198V23.9398C24.27 23.1998 24.21 22.6598 24.09 22.3198C23.99 21.9598 23.77 21.7198 23.43 21.5998C23.11 21.4598 22.64 21.3798 22.02 21.3598V20.7598C22.52 20.7798 23.19 20.7998 24.03 20.8198C24.89 20.8398 25.8 20.8498 26.76 20.8498C27.6 20.8498 28.43 20.8398 29.25 20.8198C30.07 20.7998 30.75 20.7798 31.29 20.7598Z" fill="white"/>
<path d="M53.456 26.0698C54.096 26.0698 54.616 26.2098 55.016 26.4898C55.416 26.7498 55.706 27.0898 55.886 27.5098C56.086 27.9298 56.186 28.3698 56.186 28.8298C56.186 29.5698 55.966 30.1798 55.526 30.6598C55.106 31.1198 54.546 31.3498 53.846 31.3498C53.146 31.3498 52.596 31.1798 52.196 30.8398C51.816 30.4798 51.626 30.0098 51.626 29.4298C51.626 28.8698 51.746 28.4098 51.986 28.0498C52.246 27.6698 52.566 27.3498 52.946 27.0898C52.666 27.0098 52.386 27.0198 52.106 27.1198C51.726 27.1798 51.366 27.3398 51.026 27.5998C50.686 27.8398 50.396 28.1498 50.156 28.5298C49.916 28.8898 49.726 29.2898 49.586 29.7298C49.446 30.1498 49.376 30.5598 49.376 30.9598V38.9098C49.376 39.8698 49.606 40.5198 50.066 40.8598C50.546 41.1998 51.256 41.3698 52.196 41.3698V41.9998C51.736 41.9798 51.066 41.9598 50.186 41.9398C49.306 41.8998 48.386 41.8798 47.426 41.8798C46.626 41.8798 45.816 41.8998 44.996 41.9398C44.176 41.9598 43.556 41.9798 43.136 41.9998V41.3698C43.836 41.3698 44.326 41.2198 44.606 40.9198C44.906 40.6198 45.056 40.0498 45.056 39.2098V29.7598C45.056 28.8598 44.916 28.1998 44.636 27.7798C44.376 27.3398 43.876 27.1198 43.136 27.1198V26.4898C43.776 26.5498 44.396 26.5798 44.996 26.5798C45.836 26.5798 46.616 26.5498 47.336 26.4898C48.076 26.4098 48.756 26.2998 49.376 26.1598V28.9498C49.616 28.4098 49.936 27.9198 50.336 27.4798C50.736 27.0398 51.196 26.6998 51.716 26.4598C52.236 26.1998 52.816 26.0698 53.456 26.0698Z" fill="white"/>
<path d="M64.4698 26.0698C66.2298 26.0698 67.6098 26.5898 68.6098 27.6298C69.6098 28.6698 70.1098 30.3698 70.1098 32.7298H60.2398L60.1798 32.1598H66.3298C66.3498 31.1798 66.2898 30.2798 66.1498 29.4598C66.0098 28.6198 65.7898 27.9498 65.4898 27.4498C65.1898 26.9498 64.7898 26.6998 64.2898 26.6998C63.5898 26.6998 62.9898 27.1398 62.4898 28.0198C62.0098 28.8998 61.7198 30.3598 61.6198 32.3998L61.7098 32.5798C61.6898 32.8198 61.6698 33.0698 61.6498 33.3298C61.6498 33.5898 61.6498 33.8598 61.6498 34.1398C61.6498 35.5198 61.8398 36.6398 62.2198 37.4998C62.6198 38.3598 63.1198 38.9898 63.7198 39.3898C64.3198 39.7698 64.9298 39.9598 65.5498 39.9598C65.9698 39.9598 66.3998 39.8998 66.8398 39.7798C67.2998 39.6398 67.7598 39.3998 68.2198 39.0598C68.6798 38.6998 69.1098 38.1998 69.5098 37.5598L70.0498 37.7398C69.8098 38.4998 69.4298 39.2398 68.9098 39.9598C68.3898 40.6798 67.7298 41.2698 66.9298 41.7298C66.1298 42.1898 65.1698 42.4198 64.0498 42.4198C62.6898 42.4198 61.4898 42.1298 60.4498 41.5498C59.4098 40.9698 58.5898 40.0898 57.9898 38.9098C57.4098 37.7298 57.1198 36.2298 57.1198 34.4098C57.1198 32.5498 57.4298 30.9998 58.0498 29.7598C58.6898 28.5198 59.5598 27.5998 60.6598 26.9998C61.7798 26.3798 63.0498 26.0698 64.4698 26.0698Z" fill="white"/>
<path d="M86.607 18.5098V38.6998C86.607 39.5998 86.747 40.2698 87.027 40.7098C87.307 41.1298 87.807 41.3398 88.527 41.3398V41.9698C87.907 41.9098 87.287 41.8798 86.667 41.8798C85.827 41.8798 85.037 41.9098 84.297 41.9698C83.577 42.0298 82.907 42.1398 82.287 42.2998V22.1098C82.287 21.2098 82.147 20.5498 81.867 20.1298C81.607 19.6898 81.107 19.4698 80.367 19.4698V18.8398C81.007 18.8998 81.627 18.9298 82.227 18.9298C83.047 18.9298 83.827 18.8998 84.567 18.8398C85.307 18.7598 85.987 18.6498 86.607 18.5098ZM78.957 26.0698C79.837 26.0698 80.607 26.2198 81.267 26.5198C81.947 26.7998 82.477 27.2798 82.857 27.9598L82.497 28.2898C82.237 27.8098 81.887 27.4698 81.447 27.2698C81.027 27.0498 80.577 26.9398 80.097 26.9398C79.077 26.9398 78.267 27.5398 77.667 28.7398C77.067 29.9198 76.777 31.7498 76.797 34.2298C76.797 35.9298 76.907 37.2898 77.127 38.3098C77.367 39.3098 77.697 40.0298 78.117 40.4698C78.557 40.9098 79.057 41.1298 79.617 41.1298C80.297 41.1298 80.907 40.8598 81.447 40.3198C81.987 39.7798 82.277 39.0498 82.317 38.1298L82.467 39.1798C82.167 40.2398 81.677 41.0498 80.997 41.6098C80.337 42.1498 79.467 42.4198 78.387 42.4198C77.207 42.4198 76.147 42.1298 75.207 41.5498C74.287 40.9698 73.567 40.0798 73.047 38.8798C72.527 37.6598 72.267 36.0898 72.267 34.1698C72.267 32.3498 72.557 30.8498 73.137 29.6698C73.717 28.4698 74.507 27.5698 75.507 26.9698C76.527 26.3698 77.677 26.0698 78.957 26.0698Z" fill="white"/>
<path d="M97.5167 26.0698C98.9767 26.0698 100.257 26.3398 101.357 26.8798C102.457 27.4198 103.317 28.2898 103.937 29.4898C104.557 30.6898 104.867 32.2798 104.867 34.2598C104.867 36.2398 104.557 37.8298 103.937 39.0298C103.317 40.2098 102.457 41.0698 101.357 41.6098C100.257 42.1498 98.9767 42.4198 97.5167 42.4198C96.0967 42.4198 94.8267 42.1498 93.7067 41.6098C92.6067 41.0698 91.7367 40.2098 91.0967 39.0298C90.4767 37.8298 90.1667 36.2398 90.1667 34.2598C90.1667 32.2798 90.4767 30.6898 91.0967 29.4898C91.7367 28.2898 92.6067 27.4198 93.7067 26.8798C94.8267 26.3398 96.0967 26.0698 97.5167 26.0698ZM97.5167 26.6698C96.7167 26.6698 96.0467 27.2698 95.5067 28.4698C94.9667 29.6498 94.6967 31.5798 94.6967 34.2598C94.6967 36.9398 94.9667 38.8698 95.5067 40.0498C96.0467 41.2298 96.7167 41.8198 97.5167 41.8198C98.3367 41.8198 99.0067 41.2298 99.5267 40.0498C100.067 38.8698 100.337 36.9398 100.337 34.2598C100.337 31.5798 100.067 29.6498 99.5267 28.4698C99.0067 27.2698 98.3367 26.6698 97.5167 26.6698Z" fill="white"/>
<path d="M112.86 26.1598V44.4598C112.86 45.3998 113.1 46.0198 113.58 46.3198C114.06 46.6398 114.72 46.7998 115.56 46.7998V47.4298C115.04 47.4098 114.32 47.3798 113.4 47.3398C112.5 47.3198 111.54 47.3098 110.52 47.3098C109.78 47.3098 109.05 47.3198 108.33 47.3398C107.63 47.3798 107.1 47.4098 106.74 47.4298V46.7998C107.4 46.7998 107.86 46.6598 108.12 46.3798C108.4 46.0998 108.54 45.5598 108.54 44.7598V29.7598C108.54 28.8598 108.4 28.1998 108.12 27.7798C107.84 27.3398 107.34 27.1198 106.62 27.1198V26.4898C107.26 26.5498 107.88 26.5798 108.48 26.5798C109.3 26.5798 110.08 26.5498 110.82 26.4898C111.56 26.4098 112.24 26.2998 112.86 26.1598ZM117.51 26.0698C118.53 26.0698 119.44 26.3498 120.24 26.9098C121.04 27.4498 121.68 28.2798 122.16 29.3998C122.64 30.4998 122.88 31.8798 122.88 33.5398C122.88 34.9998 122.71 36.2798 122.37 37.3798C122.05 38.4798 121.58 39.4098 120.96 40.1698C120.36 40.9098 119.63 41.4698 118.77 41.8498C117.93 42.2298 116.98 42.4198 115.92 42.4198C115.14 42.4198 114.43 42.2798 113.79 41.9998C113.15 41.7398 112.66 41.3598 112.32 40.8598L112.62 40.4698C112.82 40.8298 113.1 41.1098 113.46 41.3098C113.84 41.5098 114.27 41.6098 114.75 41.6098C115.65 41.6098 116.36 41.3098 116.88 40.7098C117.4 40.0898 117.77 39.2298 117.99 38.1298C118.23 37.0098 118.35 35.6798 118.35 34.1398C118.35 32.4198 118.24 31.0698 118.02 30.0898C117.8 29.1098 117.5 28.4098 117.12 27.9898C116.74 27.5698 116.28 27.3598 115.74 27.3598C115.02 27.3598 114.36 27.6398 113.76 28.1998C113.18 28.7598 112.85 29.5598 112.77 30.5998L112.62 29.5498C112.98 28.4098 113.59 27.5498 114.45 26.9698C115.33 26.3698 116.35 26.0698 117.51 26.0698Z" fill="white"/>
<path d="M132.468 26.0698C133.928 26.0698 135.208 26.3398 136.308 26.8798C137.408 27.4198 138.268 28.2898 138.888 29.4898C139.508 30.6898 139.818 32.2798 139.818 34.2598C139.818 36.2398 139.508 37.8298 138.888 39.0298C138.268 40.2098 137.408 41.0698 136.308 41.6098C135.208 42.1498 133.928 42.4198 132.468 42.4198C131.048 42.4198 129.778 42.1498 128.658 41.6098C127.558 41.0698 126.688 40.2098 126.048 39.0298C125.428 37.8298 125.118 36.2398 125.118 34.2598C125.118 32.2798 125.428 30.6898 126.048 29.4898C126.688 28.2898 127.558 27.4198 128.658 26.8798C129.778 26.3398 131.048 26.0698 132.468 26.0698ZM132.468 26.6698C131.668 26.6698 130.998 27.2698 130.458 28.4698C129.918 29.6498 129.648 31.5798 129.648 34.2598C129.648 36.9398 129.918 38.8698 130.458 40.0498C130.998 41.2298 131.668 41.8198 132.468 41.8198C133.288 41.8198 133.958 41.2298 134.478 40.0498C135.018 38.8698 135.288 36.9398 135.288 34.2598C135.288 31.5798 135.018 29.6498 134.478 28.4698C133.958 27.2698 133.288 26.6698 132.468 26.6698Z" fill="white"/>
<path d="M147.518 18.5098V39.2098C147.518 40.0498 147.658 40.6198 147.938 40.9198C148.238 41.2198 148.738 41.3698 149.438 41.3698V41.9998C149.058 41.9798 148.488 41.9598 147.728 41.9398C146.968 41.8998 146.198 41.8798 145.418 41.8798C144.638 41.8798 143.848 41.8998 143.048 41.9398C142.268 41.9598 141.678 41.9798 141.278 41.9998V41.3698C141.978 41.3698 142.468 41.2198 142.748 40.9198C143.048 40.6198 143.198 40.0498 143.198 39.2098V22.1098C143.198 21.2098 143.058 20.5498 142.778 20.1298C142.518 19.6898 142.018 19.4698 141.278 19.4698V18.8398C141.918 18.8998 142.538 18.9298 143.138 18.9298C143.958 18.9298 144.738 18.8998 145.478 18.8398C146.218 18.7598 146.898 18.6498 147.518 18.5098Z" fill="white"/>
</svg>
